<svg viewBox="0 0 48 48" fill="none" xmlns="http://www.w3.org/2000/svg">
  <!-- Calculator body -->
  <rect x="10" y="4" width="28" height="40" rx="2" fill="#c0c0c0" stroke="#808080" stroke-width="1.5"/>
  <!-- Screen -->
  <rect x="14" y="8" width="20" height="10" rx="1" fill="#d4e8c0" stroke="#999" stroke-width="0.5"/>
  <!-- Display text -->
  <text x="31" y="16" font-family="monospace" font-size="7" fill="#1a1a1a" text-anchor="end">0</text>
  <!-- Button grid -->
  <rect x="14" y="22" width="4" height="3" rx="0.5" fill="#d8d0c8"/>
  <rect x="20" y="22" width="4" height="3" rx="0.5" fill="#d8d0c8"/>
  <rect x="26" y="22" width="4" height="3" rx="0.5" fill="#d8d0c8"/>
  <rect x="32" y="22" width="4" height="3" rx="0.5" fill="#e8e0d8"/>
  <rect x="14" y="27" width="4" height="3" rx="0.5" fill="#e0e0e0"/>
  <rect x="20" y="27" width="4" height="3" rx="0.5" fill="#e0e0e0"/>
  <rect x="26" y="27" width="4" height="3" rx="0.5" fill="#e0e0e0"/>
  <rect x="32" y="27" width="4" height="3" rx="0.5" fill="#e8e0d8"/>
  <rect x="14" y="32" width="4" height="3" rx="0.5" fill="#e0e0e0"/>
  <rect x="20" y="32" width="4" height="3" rx="0.5" fill="#e0e0e0"/>
  <rect x="26" y="32" width="4" height="3" rx="0.5" fill="#e0e0e0"/>
  <rect x="32" y="32" width="4" height="3" rx="0.5" fill="#e8e0d8"/>
  <rect x="14" y="37" width="10" height="3" rx="0.5" fill="#e0e0e0"/>
  <rect x="26" y="37" width="4" height="3" rx="0.5" fill="#e0e0e0"/>
  <rect x="32" y="37" width="4" height="3" rx="0.5" fill="#d0c8c0"/>
</svg>
